<?xml version="1.0" ?>
<!-- Uploaded to: SVG Repo, www.svgrepo.com, Generator: SVG Repo Mixer Tools -->
<svg width="800px" height="800px" viewBox="0 0 48 48" id="svg5" version="1.1" xml:space="preserve" xmlns="http://www.w3.org/2000/svg" xmlns:svg="http://www.w3.org/2000/svg">
<defs id="defs2"/>
<g id="layer1" transform="translate(-314.00003,-377)">
<path d="m 334.1226,388.15607 11.31865,-1.86916 c 0.91644,-0.15134 1.80338,0.39915 2.07495,1.28785 l 3.35416,10.97606 -14.93488,21.34903 -16.74778,-10.39475 z" id="path34743" style="fill:#fcca3d;fill-opacity:1;fill-rule:evenodd;stroke:none;stroke-width:2;stroke-linecap:round;stroke-linejoin:round;stroke-miterlimit:4.1"/>
<path d="m 334.90209,393.41809 9.66358,-7.97875 c 0.78243,-0.64601 1.95071,-0.64601 2.73314,0 l 9.66359,7.97875 v 27.18511 h -22.06031 z" id="rect34634" style="fill:#e7e7e7;fill-opacity:1;fill-rule:evenodd;stroke:none;stroke-width:2;stroke-linecap:round;stroke-linejoin:round;stroke-miterlimit:4.1"/>
<path d="m 345.93164,384.95475 c -0.48767,0 -0.97402,0.16137 -1.36523,0.48437 l -9.66407,7.97852 1e-5,27.18554 7.7832,10e-6 a 21.652178,31.512308 17.952719 0 0 11.84375,-18.32227 21.652178,31.512308 17.952719 0 0 1.95312,-9.25977 l -9.18359,-7.58203 c -0.39122,-0.323 -0.87951,-0.48438 -1.36719,-0.48437 z" id="path58151" style="fill:#fafafa;fill-opacity:1;fill-rule:evenodd;stroke:none;stroke-width:2;stroke-linecap:round;stroke-linejoin:round;stroke-miterlimit:4.1;stroke-opacity:1"/>
<path d="m 345.93164,401.94107 a 1.0052433,0.9947851 0 0 0 -1.00391,0.99414 v 1.36328 c -1.42542,0.4155 -2.49218,1.68815 -2.49218,3.21289 0,1.86655 1.59875,3.35938 3.49609,3.35938 0.85638,0 1.48828,0.62495 1.48828,1.36914 0,0.74421 -0.63191,1.36913 -1.48828,1.36913 -0.85638,0 -1.48828,-0.62492 -1.48828,-1.36913 a 1.0052433,0.9947851 0 0 0 -1.00391,-0.99414 1.0052433,0.9947851 0 0 0 -1.0039,0.99414 c 0,1.52475 1.06676,2.79739 2.49218,3.21289 v 1.36328 a 1.0052433,0.9947851 0 0 0 1.00391,0.99414 1.0052433,0.9947851 0 0 0 1.00586,-0.99414 v -1.36328 c 1.42464,-0.41596 2.49218,-1.68869 2.49219,-3.21289 0,-1.86652 -1.60071,-3.35938 -3.49805,-3.35938 -0.85639,0 -1.48828,-0.62492 -1.48828,-1.36914 0,-0.74419 0.63189,-1.36914 1.48828,-1.36914 0.85639,0 1.48828,0.62495 1.48828,1.36914 a 1.0052433,0.9947851 0 0 0 1.00586,0.99609 1.0052433,0.9947851 0 0 0 1.00391,-0.99609 c 0,-1.52419 -1.06755,-2.79692 -2.49219,-3.21289 v -1.36328 a 1.0052433,0.9947851 0 0 0 -1.00586,-0.99414 z" id="path34626" style="color:#000000;fill:#808b9b;fill-opacity:1;fill-rule:evenodd;stroke:none;stroke-width:0.999998;stroke-linecap:round;stroke-linejoin:round;stroke-miterlimit:4.1;stroke-opacity:1"/>
<path d="m 346,381.38638 c -0.55228,0 -1,0.44772 -1,1 v 9.6558 c 0,0.55228 0.44772,1 1,1 0.55228,0 1,-0.44772 1,-1 v -9.6558 c 0,-0.55228 -0.44772,-1 -1,-1 z" id="path57955" style="color:#000000;fill:#808b9b;fill-opacity:1;fill-rule:evenodd;stroke-linecap:round;stroke-linejoin:round;stroke-miterlimit:4.1;-inkscape-stroke:none"/>
<path d="m 349.04819,394.71907 c 0,1.72088 -1.39506,3.11592 -3.11596,3.11592 -1.72089,0 -3.11594,-1.39504 -3.11594,-3.11592 0,-1.72086 1.39505,-3.11589 3.11594,-3.11589 1.7209,0 3.11596,1.39503 3.11596,3.11589 z" id="path34737" style="fill:#ff5576;fill-opacity:1;fill-rule:evenodd;stroke:none;stroke-width:2;stroke-linecap:round;stroke-linejoin:round;stroke-miterlimit:4.1"/>
</g>
</svg>